<?xml version="1.0" encoding="utf-8"?>
<!-- Generator: Adobe Illustrator 23.0.1, SVG Export Plug-In . SVG Version: 6.00 Build 0)  -->
<svg version="1.1" id="Calque_1" xmlns:v="https://vecta.io/nano"
	 xmlns="http://www.w3.org/2000/svg" xmlns:xlink="http://www.w3.org/1999/xlink" x="0px" y="0px" viewBox="0 0 186 171"
	 style="enable-background:new 0 0 186 171;" xml:space="preserve">
<style type="text/css">
	.st0{fill:#606063;}
	.st1{fill:url(#SVGID_1_);}
	.st2{fill-rule:evenodd;clip-rule:evenodd;fill:#606063;}
	.st3{fill-rule:evenodd;clip-rule:evenodd;fill:#979797;}
	.st4{fill-rule:evenodd;clip-rule:evenodd;fill:url(#SVGID_2_);}
	.st5{fill-rule:evenodd;clip-rule:evenodd;fill:url(#SVGID_3_);}
	.st6{fill:#F0B90B;}
	.st7{fill:#FFFDFA;}
	.st8{opacity:0.1;fill:none;stroke:#191326;stroke-width:3;enable-background:new    ;}
	.st9{display:none;fill:url(#SVGID_4_);}
	.st10{display:none;fill-rule:evenodd;clip-rule:evenodd;fill:#606063;}
	.st11{display:none;fill:#BEBEBE;}
	.st12{display:none;fill:#F5F3F3;}
	.st13{display:none;fill-rule:evenodd;clip-rule:evenodd;fill:#612F01;}
	.st14{display:none;fill:#FEDC90;}
	.st15{display:none;fill:#D1884F;}
	.st16{display:none;}
	.st17{display:inline;fill-rule:evenodd;clip-rule:evenodd;fill:url(#SVGID_5_);}
	.st18{display:inline;fill-rule:evenodd;clip-rule:evenodd;fill:#633001;}
	.st19{display:inline;}
	.st20{fill:#9E7200;}
	.st21{display:inline;fill:#9E7200;}
	.st22{display:inline;fill:#F0B90B;}
	.st23{display:none;fill:#9E7200;}
	.st24{display:none;fill-rule:evenodd;clip-rule:evenodd;fill:#633001;}
	.st25{display:none;opacity:0.2;fill:none;stroke:#191326;stroke-width:2.837;enable-background:new    ;}
	.st26{fill:#B7EAFF;stroke:#5DC4D9;stroke-width:4;stroke-miterlimit:10;}
	.st27{fill:#FFFFFF;fill-opacity:6.274510e-02;}
	.st28{fill:#FFFFFF;}
	.st29{fill:#F1F6F8;}
	.st30{fill:#FFFFFF;fill-opacity:0.451;}
	.st31{fill:#F1F6F8;fill-opacity:0.451;}
	.st32{fill:#FFFFFF;fill-opacity:0.2039;}
	.st33{fill:#FFFFFF;fill-opacity:0.3333;}
	.st34{fill:#5DC4D9;}
	.st35{fill:#4E5E6E;}
	.st36{fill:#FEA192;}
	.st37{fill:#FF738E;}
</style>
<g>
	<path class="st0" d="M67,119c-3.2,12.1,15,27.4,40.6,34.1s48.9,2.3,52.1-9.9s-15-27.4-40.6-34.1S70.2,106.9,67,119z"/>
	<path class="st0" d="M155.9,149.3l15.4-16.3L62,104.4l5.7,21.8L155.9,149.3z"/>
	<path class="st0" d="M68.9,108.3l-41.9-11c-1.8-0.5-3.7,0.7-4.1,2.5l-0.5,2.1c-0.9,4.2,1.6,8.5,5.7,9.7l41.8,12.2
		C70.1,123.9,68.9,108.3,68.9,108.3z"/>
</g>
<linearGradient id="SVGID_1_" gradientUnits="userSpaceOnUse" x1="124.7569" y1="84.226" x2="111.3809" y2="33.114" gradientTransform="matrix(1 0 0 -1 0 172)">
	<stop  offset="0" style="stop-color:#404042"/>
	<stop  offset="1" style="stop-color:#48484B"/>
</linearGradient>
<path class="st1" d="M62.2,98.7c-3.7,14.1,18.3,32.1,49.2,40.2s58.9,3.2,62.6-10.9s-18.3-32.1-49.2-40.2S65.9,84.6,62.2,98.7
	L62.2,98.7z"/>
<g>
	<path class="st2" d="M146.7,123.3c7.1,5.2,11.2,10.9,11.9,15.9l3-0.4c-0.8-6.2-5.7-12.5-13.1-17.9c-7.4-5.4-17.4-10.1-28.9-13.2
		S97,103.9,87.9,105c-9,1.1-16.4,4.2-20.2,9.2l2.4,1.8c3-4.1,9.4-6.9,18.1-8c8.7-1.1,19.4-0.3,30.5,2.6S139.6,118.1,146.7,123.3
		L146.7,123.3z"/>
	<path class="st3" d="M75.7,118.7c-8.7-7.1-12-14-10.6-19.3s7.6-9.7,18.7-11.6c10.8-1.9,25.1-1.2,40.2,2.8s27.9,10.3,36.4,17.2
		c8.7,7.1,12,14,10.6,19.3c-1.4,5.2-7.6,9.7-18.7,11.6c-10.8,1.9-25.1,1.2-40.2-2.8S84.2,125.7,75.7,118.7L75.7,118.7z M111.4,138.9
		c-30.9-8.1-52.9-26.1-49.2-40.2s31.7-19,62.6-10.9s52.9,26.1,49.2,40.2S142.2,147,111.4,138.9L111.4,138.9z"/>
	
		<linearGradient id="SVGID_2_" gradientUnits="userSpaceOnUse" x1="65.5671" y1="66.9044" x2="60.7349" y2="48.8706" gradientTransform="matrix(1 0 0 -1 0 172)">
		<stop  offset="0" style="stop-color:#404042"/>
		<stop  offset="1" style="stop-color:#48484B"/>
	</linearGradient>
	<path class="st4" d="M64.2,124l-4.9-19.1l2.9-0.8l4.9,19.1L64.2,124z"/>
	
		<linearGradient id="SVGID_3_" gradientUnits="userSpaceOnUse" x1="92.4944" y1="91.8311" x2="108.0895" y2="7.3795" gradientTransform="matrix(1 0 0 -1 0 172)">
		<stop  offset="0" style="stop-color:#404042"/>
		<stop  offset="1" style="stop-color:#48484B"/>
	</linearGradient>
	<path class="st5" d="M62.5,106.2l-0.1-0.4l-0.2-0.8l-0.1-0.5c0,0,0,0,0,0l0,0l-0.1-0.8l0-0.2c-0.1-0.7-0.1-1.3-0.1-2
		c0-0.9,0.2-1.8,0.4-2.7c3.7-14.1,31.7-19,62.6-10.9s52.9,26.1,49.2,40.2c-0.2,0.9-0.6,1.7-1,2.5c-0.5,0.9-1,1.7-1.6,2.5l0,0
		c0,0,0,0,0,0l-0.6,0.7l-12.9,13.7c-6.8,9-27.6,11.8-50.1,5.9c-22.3-5.8-39-18.2-40.8-29.3c-0.1-0.6-0.5-1.1-1-1.2l-36.7-10.7
		c-4.1-1.2-6.7-5.4-5.8-9.6l0.5-2.2c0.4-1.8,2.2-3,4.1-2.5l34.2,8.9c0.1,0,0.3,0,0.3-0.2C62.5,106.3,62.5,106.2,62.5,106.2
		L62.5,106.2z M58.8,102.6c-0.1-1.5,0.1-3.1,0.5-4.6c2.3-8.9,11.9-14,23.5-16c11.8-2.1,27-1.2,42.7,2.9s29.4,10.8,38.7,18.4
		c9.1,7.4,15,16.6,12.6,25.4c-0.6,2.1-1.6,4.1-2.9,5.8c-0.1,0.2-0.3,0.4-0.4,0.6l-13.4,14.2c-4.2,5.4-12,8.5-21.1,9.6
		c-9.3,1.1-20.5,0.3-32.1-2.8c-11.5-3-21.5-7.7-29.1-13.1c-7.1-5.1-12.3-11.3-13.7-17.7l-35.8-10.5c-5.6-1.7-9.1-7.4-7.9-13.1
		l0.5-2.2c0.7-3.5,4.3-5.7,7.8-4.8L58.8,102.6L58.8,102.6z"/>
</g>
<circle class="st6" cx="76" cy="29" r="29"/>
<path class="st7" d="M65.2,29l-4.4,4.5L56.3,29l4.5-4.5L65.2,29z M76,18.2l7.6,7.6l4.5-4.5l-7.6-7.6L76,9.3L63.9,21.4l4.5,4.5
	L76,18.2z M91.3,24.5L86.8,29l4.5,4.5l4.4-4.5L91.3,24.5z M76,39.8l-7.6-7.6l-4.4,4.5L76,48.7l12.1-12.1l-4.5-4.4L76,39.8z M76,33.5
	l4.5-4.5L76,24.5L71.5,29L76,33.5z"/>
<circle class="st8" cx="76" cy="29" r="27.5"/>
<linearGradient id="SVGID_4_" gradientUnits="userSpaceOnUse" x1="125.5" y1="143" x2="125.5" y2="56" gradientTransform="matrix(1 0 0 -1 0 172)">
	<stop  offset="0" style="stop-color:#54DADE"/>
	<stop  offset="0.762" style="stop-color:#24C7D6"/>
</linearGradient>
<circle class="st9" cx="125.5" cy="72.5" r="43.5"/>
<path class="st10" d="M97.2,77.3l0,0.5c0,0.6,0.1,1.2,0.2,1.8h-0.2v0.9c0,0.5,0,0.9,0.1,1.4c1.2,8.8,13.3,15.8,28.2,15.8
	s27-7,28.2-15.8c0.1-0.5,0.1-0.9,0.1-1.4v-0.9h-0.2c0.1-0.6,0.2-1.2,0.2-1.8c0-0.2,0-0.3,0-0.5c-0.4-9.3-12.9-16.7-28.3-16.7
	S97.7,68,97.2,77.3z M94.9,77.3c0.2-5.6,4-10.4,9.4-13.6c5.5-3.4,13-5.4,21.2-5.4s15.7,2,21.2,5.4c5.3,3.2,9.2,8,9.4,13.6h0v3.3
	c0,5.9-3.9,10.8-9.4,14.1c-5.5,3.4-13,5.4-21.2,5.4s-15.7-2-21.2-5.4c-5.5-3.3-9.4-8.3-9.4-14.1L94.9,77.3L94.9,77.3z"/>
<path class="st11" d="M153.8,80.5c0,9.5-12.7,17.2-28.3,17.2S97.2,90,97.2,80.5v-2.7h56.5V80.5z"/>
<path class="st12" d="M153.8,77.8c0,9.5-12.7,17.2-28.3,17.2s-28.3-7.7-28.3-17.2s12.7-17.2,28.3-17.2S153.8,68.3,153.8,77.8
	L153.8,77.8z"/>
<path class="st13" d="M101.6,72.9L101.6,72.9c0,0.8,0.1,1.6,0.3,2.3h-0.3v1c0,0.4,0,0.9,0.1,1.3c1.1,6.5,10.1,11.6,21.1,11.6
	s20-5.1,21.1-11.6c0.1-0.4,0.1-0.9,0.1-1.3v-1h-0.3c0.2-0.7,0.3-1.5,0.3-2.2v-0.1c0-7.1-9.5-12.9-21.2-12.9S101.6,65.8,101.6,72.9z
	 M99.3,72.9L99.3,72.9v3.3c0,4.7,3.1,8.6,7.3,11.1c4.3,2.6,10,4.1,16.2,4.1c6.2,0,11.9-1.5,16.2-4.1c4.2-2.6,7.3-6.4,7.3-11.1V73
	l0-0.1c0-4.7-3.1-8.6-7.3-11.1c-4.3-2.6-10-4.1-16.2-4.1s-11.9,1.5-16.2,4.1C102.4,64.4,99.3,68.2,99.3,72.9L99.3,72.9z"/>
<path class="st14" d="M143.9,76.2c0,7.1-9.5,12.9-21.2,12.9s-21.2-5.8-21.2-12.9v-3h42.3V76.2z"/>
<path class="st15" d="M143.9,73c0,7.1-9.5,12.9-21.2,12.9s-21.2-5.8-21.2-12.9S111.1,60,122.7,60S143.9,65.8,143.9,73z"/>
<path class="st13" d="M108,66L108,66c0,0.8,0.1,1.6,0.3,2.3H108v1c0,0.4,0,0.9,0.1,1.3c1.1,6.5,10.1,11.6,21.1,11.6
	s20-5.1,21.1-11.6c0.1-0.4,0.1-0.9,0.1-1.3v-1H150c0.2-0.7,0.3-1.5,0.3-2.2V66c0-7.1-9.5-12.9-21.2-12.9S108,58.8,108,66z M105.6,66
	L105.6,66v3.3c0,4.7,3.1,8.6,7.3,11.1c4.3,2.6,10,4.1,16.2,4.1c6.2,0,11.9-1.5,16.2-4.1c4.2-2.6,7.3-6.4,7.3-11.1V66
	c0-4.7-3.1-8.6-7.3-11.1c-4.3-2.6-10-4.1-16.2-4.1s-11.9,1.5-16.2,4.1C108.8,57.4,105.7,61.3,105.6,66z"/>
<path class="st14" d="M150.3,69.3c0,7.1-9.5,12.9-21.2,12.9S108,76.4,108,69.3v-3h42.3V69.3z"/>
<path class="st15" d="M150.3,66c0,7.1-9.5,12.9-21.2,12.9S108,73.1,108,66s9.5-12.9,21.2-12.9S150.3,58.9,150.3,66z"/>
<path class="st13" d="M101.6,59L101.6,59c0,0.8,0.1,1.6,0.3,2.3h-0.3v1c0,0.4,0,0.9,0.1,1.3c1.1,6.5,10.1,11.6,21.1,11.6
	s20-5.1,21.1-11.6c0.1-0.4,0.1-0.9,0.1-1.3v-1h-0.3c0.2-0.7,0.3-1.5,0.3-2.2V59c0-7.1-9.5-12.9-21.2-12.9S101.6,51.9,101.6,59z
	 M99.3,59L99.3,59v3.3c0,4.7,3.1,8.6,7.3,11.1c4.3,2.6,10,4.1,16.2,4.1c6.2,0,11.9-1.5,16.2-4.1c4.2-2.6,7.3-6.4,7.3-11.1v-3.2
	l0-0.1c0-4.7-3.1-8.6-7.3-11.1c-4.3-2.6-10-4.1-16.2-4.1s-11.9,1.5-16.2,4.1C102.4,50.5,99.3,54.3,99.3,59L99.3,59z"/>
<path class="st14" d="M143.9,62.3c0,7.1-9.5,12.9-21.2,12.9s-21.2-5.8-21.2-12.9v-3h42.3C143.9,59.3,143.9,62.3,143.9,62.3z"/>
<path class="st15" d="M143.9,59c0,7.1-9.5,12.9-21.2,12.9s-21.2-5.8-21.2-12.9s9.5-12.9,21.2-12.9S143.9,51.9,143.9,59z"/>
<g class="st16">
	
		<linearGradient id="SVGID_5_" gradientUnits="userSpaceOnUse" x1="119.3315" y1="119.732" x2="119.3315" y2="92.835" gradientTransform="matrix(1 0 0 -1 0 172)">
		<stop  offset="0" style="stop-color:#9F4A08"/>
		<stop  offset="0.37" style="stop-color:#7D3900"/>
		<stop  offset="1" style="stop-color:#8D4104"/>
	</linearGradient>
	<path class="st17" d="M106.6,59.8c0,2.4,1.7,4.5,4.5,6l-1.9,3.3h0h0v8.3c0,1.1,0.9,2,2,2c1.1,0,2-0.9,2-2v-6.6l2-3.5
		c1.3,0.3,2.7,0.4,4.2,0.4c7,0,12.7-3.5,12.7-7.8s-5.7-7.8-12.7-7.8S106.6,55.5,106.6,59.8z"/>
	<path class="st18" d="M111.1,65.8l-0.9-0.5c-2.2-1.4-3.6-3.3-3.6-5.5c0-4.3,5.7-7.8,12.7-7.8s12.7,3.5,12.7,7.8s-5.7,7.8-12.7,7.8
		c-1.4,0-2.8-0.1-4.2-0.4l-2,3.5v6.6c0,1.1-0.9,2-2,2c-1.1,0-2-0.9-2-2v-8.3C109.2,69.1,111.1,65.8,111.1,65.8z M107.1,69.1v8.3
		c0,2.2,1.8,4,4,4c2.2,0,4-1.8,4-4v-6.1l1.1-1.8c1,0.1,2.1,0.2,3.1,0.2c3.8,0,7.4-1,10.1-2.6c2.6-1.6,4.7-4.1,4.7-7.3
		s-2.1-5.6-4.7-7.3c-2.7-1.6-6.2-2.6-10.1-2.6s-7.4,1-10.1,2.6c-2.6,1.6-4.7,4.1-4.7,7.3c0,2.7,1.6,5,3.8,6.6l-0.9,1.6
		c-0.1,0.1-0.2,0.3-0.2,0.5C107.2,68.7,107.1,68.9,107.1,69.1L107.1,69.1z"/>
</g>
<g class="st16">
	<g class="st19">
		<path id="F" class="st20" d="M110.6,56.5c0,2.2,2.9,4.1,6.4,4.1s6.4-1.8,6.4-4.1s-2.9-4.1-6.4-4.1S110.6,54.3,110.6,56.5z"/>
	</g>
	<path class="st21" d="M110.6,54.8h12.8v1.7h-12.8V54.8z"/>
</g>
<g class="st16">
	<path class="st22" d="M110.6,54.8c0,2.2,2.9,4.1,6.4,4.1s6.4-1.8,6.4-4.1s-2.9-4.1-6.4-4.1S110.6,52.6,110.6,54.8z"/>
</g>
<path class="st23" d="M114.5,54.3l1.8-1.1c0.4-0.2,0.9-0.2,1.2,0l1.8,1.1c0.3,0.2,0.3,0.5,0.2,0.8c0,0.1-0.1,0.1-0.2,0.2l-1.8,1.1
	c-0.4,0.2-0.9,0.2-1.2,0l-1.8-1.1c-0.3-0.2-0.3-0.5-0.2-0.8C114.4,54.4,114.5,54.4,114.5,54.3z"/>
<path class="st24" d="M111.3,50.2c1.5-1,3.5-1.5,5.6-1.5s4.1,0.5,5.6,1.5c1.5,1,2.8,2.5,2.8,4.6v1.7c0,2.1-1.3,3.6-2.8,4.6
	c-1.5,1-3.5,1.5-5.6,1.5s-4.1-0.5-5.6-1.5c-1.5-1-2.8-2.5-2.8-4.6v-1.7C108.5,52.7,109.8,51.2,111.3,50.2z M116.9,50.7
	c-3.5,0-6.4,1.8-6.4,4.1v1.7c0,2.2,2.9,4.1,6.4,4.1s6.4-1.8,6.4-4.1v-1.7C123.3,52.6,120.5,50.7,116.9,50.7z"/>
<circle class="st25" cx="125.5" cy="72.5" r="42.1"/>
<g>
	<circle class="st26" cx="124.6" cy="73" r="42.6"/>
	<g>
		<g>
			<path class="st27" d="M112.7,46.1c-4.4,0-7.7,0.6-9.8,1.6c-1.5,1.1-2.6,3.4-3.3,6.9c-0.8,4.8-0.8,12,0.2,21.5
				c0.3,5.3,1.6,11.2,3.9,17.8l33.5-12.1c0.1-4.5,0.4-8.5,0.9-12c0.2-1.4,0.4-2.4,0.5-2.9c1.3-5,1.9-7.9,2-8.8
				c0.2-1.8-0.1-3.2-1-4.3c-1.9-2.5-5-4.3-9.4-5.5C125.2,47.1,119.4,46.3,112.7,46.1"/>
		</g>
		<g>
			<path class="st28" d="M116.8,66.1c-0.1,0-0.2,0-0.3,0c-0.1,0-0.3,0-0.6,0c-0.2,0-0.5,0-0.6,0s-0.4,0-0.6,0s-0.4,0-0.6,0
				c-0.2,0-0.3,0-0.5,0c-0.1,0-0.3,0-0.4,0c-0.2,0-0.3,0-0.5,0c-0.2,0-0.3,0-0.5,0c-0.2,0-0.3,0-0.5,0.1c-0.2,0-0.4,0-0.5,0.1
				s-0.3,0-0.4,0.1c-0.1,0-0.3,0-0.4,0.1s-0.3,0.1-0.4,0.1c-0.2,0-0.4,0.1-0.6,0.1c-0.2,0-0.5,0.1-0.7,0.2c-0.2,0.1-0.4,0.1-0.6,0.1
				c-0.2,0-0.3,0.1-0.5,0.1c-0.2,0-0.3,0.1-0.5,0.1c-0.2,0.1-0.3,0.1-0.5,0.2c-0.1,0-0.3,0.1-0.4,0.1s-0.3,0.1-0.4,0.1
				c-0.1,0-0.3,0.1-0.4,0.2c-0.1,0.1-0.3,0.1-0.4,0.2s-0.3,0.1-0.4,0.2s-0.3,0.1-0.5,0.2c-0.2,0.1-0.3,0.2-0.5,0.2
				c-0.2,0.1-0.3,0.2-0.4,0.2c-0.1,0.1-0.3,0.2-0.4,0.3c-0.1,0.1-0.3,0.2-0.4,0.2c-0.1,0.1-0.2,0.2-0.4,0.3
				c-0.2,0.1-0.3,0.2-0.4,0.3c-0.1,0.1-0.3,0.2-0.4,0.3c-0.1,0.1-0.2,0.2-0.3,0.3c-0.1,0.1-0.2,0.2-0.3,0.3s-0.2,0.2-0.3,0.3
				c-0.1,0.1-0.2,0.2-0.3,0.3c-0.1,0.1-0.2,0.2-0.3,0.3c-0.1,0.1-0.2,0.2-0.2,0.4s-0.1,0.3-0.2,0.4c0,0.1-0.1,0.3-0.1,0.4
				c0,0.1-0.1,0.3-0.1,0.4c0,0.1,0,0.3-0.1,0.5c0,0.2,0,0.3,0,0.5c0,0.1,0,0.3,0,0.5c0,0.2,0,0.3,0,0.4c0,0.1,0,0.3,0,0.4
				c0,0.1,0,0.3,0,0.4c0,0.1,0,0.3,0,0.4c0,0.1,0,0.3,0.1,0.5c0,0.2,0.1,0.4,0.1,0.5c0,0.2,0.1,0.3,0.1,0.5c0,0.2,0.1,0.3,0.1,0.5
				c0,0.2,0.1,0.4,0.1,0.6c0,0.2,0.1,0.3,0.1,0.5c0,0.1,0.1,0.3,0.1,0.4s0.1,0.3,0.1,0.5c0,0.2,0.1,0.3,0.1,0.5
				c0,0.1,0.1,0.3,0.1,0.4c0,0.1,0.1,0.3,0.1,0.5s0.1,0.4,0.1,0.6c0,0.2,0.1,0.4,0.1,0.5c0,0.2,0.1,0.3,0.1,0.5
				c0,0.1,0.1,0.3,0.1,0.4c0,0.1,0.1,0.3,0.1,0.5c0,0.2,0.1,0.3,0.1,0.5s0.1,0.3,0.1,0.5s0.1,0.4,0.1,0.6c0,0.2,0.1,0.4,0.1,0.5
				c0,0.2,0.1,0.3,0.1,0.5c0,0.2,0.1,0.3,0.1,0.5c0,0.2,0.1,0.3,0.1,0.5c0,0.1,0.1,0.3,0.1,0.5c0,0.2,0.1,0.3,0.1,0.5
				c0,0.2,0.1,0.4,0.1,0.6c0,0.2,0.1,0.4,0.1,0.6c0,0.2,0.1,0.3,0.1,0.5c0,0.2,0.1,0.3,0.1,0.5c0,0.2,0.1,0.3,0.1,0.5
				c0,0.1,0.1,0.3,0.1,0.4c0,0.1,0.1,0.3,0.1,0.5s0.1,0.3,0.2,0.6c0.1,0.2,0.1,0.4,0.2,0.5c0,0.1,0.1,0.3,0.1,0.4
				c0,0.1,0.1,0.3,0.2,0.5c0.1,0.2,0.1,0.3,0.2,0.5c0.1,0.2,0.1,0.3,0.2,0.4c0.1,0.1,0.1,0.3,0.2,0.5c0.1,0.2,0.2,0.4,0.3,0.5
				c0.1,0.2,0.2,0.3,0.3,0.5c0.1,0.2,0.2,0.3,0.3,0.5c0.1,0.2,0.2,0.3,0.3,0.5c0.1,0.2,0.2,0.3,0.3,0.5c0.1,0.1,0.2,0.3,0.3,0.4
				c0.1,0.1,0.2,0.3,0.3,0.4c0.1,0.1,0.2,0.3,0.3,0.4c0.1,0.1,0.2,0.3,0.3,0.4c0.1,0.2,0.2,0.3,0.3,0.5c0.1,0.2,0.2,0.3,0.3,0.5
				c0.1,0.1,0.2,0.3,0.3,0.4c0.1,0.1,0.2,0.2,0.3,0.4c0.1,0.1,0.2,0.3,0.3,0.4c0.1,0.1,0.2,0.3,0.3,0.4c0.1,0.1,0.2,0.2,0.3,0.3
				c0.1,0.1,0.2,0.2,0.3,0.3c0.1,0.1,0.2,0.2,0.3,0.3c0.1,0.1,0.2,0.2,0.4,0.3c0.1,0.1,0.2,0.2,0.3,0.3s0.2,0.2,0.4,0.3
				c0.1,0.1,0.3,0.2,0.4,0.3c0.1,0.1,0.2,0.2,0.3,0.3s0.3,0.2,0.4,0.3s0.3,0.2,0.4,0.3c0.1,0.1,0.3,0.2,0.4,0.2
				c0.1,0.1,0.3,0.1,0.4,0.2c0.2,0.1,0.3,0.1,0.5,0.2c0.2,0.1,0.3,0.1,0.5,0.2c0.1,0,0.3,0.1,0.4,0.1c0.2,0,0.3,0.1,0.5,0.1
				c0.2,0,0.3,0.1,0.5,0.1c0.2,0,0.4,0.1,0.5,0.1s0.4,0,0.6,0c0.2,0,0.4,0,0.5,0c0.1,0,0.3,0,0.4,0c0,0,0,0,0,0c0.2,0,0.3,0,0.5,0
				c0.2,0,0.3,0,0.5,0c0.2,0,0.3,0,0.5,0c0.1,0,0.3,0,0.5,0s0.3,0,0.4,0c0.1,0,0.3,0,0.4,0c0.1,0,0.3,0,0.4-0.1c0.2,0,0.3,0,0.5-0.1
				c0.2,0,0.3,0,0.5-0.1c0.2,0,0.3,0,0.5-0.1c0.2,0,0.3-0.1,0.5-0.1c0.1,0,0.3-0.1,0.4-0.1c0.2,0,0.3-0.1,0.5-0.1
				c0.2,0,0.4-0.1,0.6-0.1c0.2,0,0.4-0.1,0.5-0.1c0.2,0,0.3-0.1,0.5-0.1c0.2,0,0.3-0.1,0.4-0.1c0.1,0,0.3-0.1,0.4-0.1
				c0.1,0,0.3-0.1,0.4-0.1c0.2,0,0.3-0.1,0.5-0.1s0.3-0.1,0.5-0.1s0.3-0.1,0.5-0.1s0.3-0.1,0.4-0.1c0.1,0,0.3-0.1,0.4-0.1
				c0.1,0,0.3-0.1,0.4-0.1c0.1,0,0.3-0.1,0.4-0.1c0.1,0,0.3-0.1,0.4-0.1c0.2,0,0.3-0.1,0.5-0.2c0.2-0.1,0.3-0.1,0.5-0.2
				s0.3-0.1,0.5-0.2c0.2-0.1,0.3-0.1,0.5-0.2c0.2-0.1,0.3-0.1,0.5-0.2c0.2-0.1,0.3-0.1,0.5-0.2c0.1-0.1,0.3-0.1,0.4-0.1
				c0.1,0,0.3-0.1,0.4-0.2c0.2-0.1,0.4-0.1,0.6-0.2c0.2-0.1,0.4-0.2,0.5-0.2s0.3-0.1,0.4-0.2c0.2-0.1,0.3-0.2,0.5-0.3
				c0.2-0.1,0.3-0.2,0.4-0.3c0.1-0.1,0.3-0.2,0.4-0.3c0.2-0.1,0.3-0.2,0.4-0.3c0.1-0.1,0.2-0.2,0.3-0.3c0.1-0.1,0.2-0.2,0.3-0.4
				s0.1-0.3,0.1-0.4c0-0.1,0.1-0.3,0.1-0.4c0-0.1,0.1-0.3,0.1-0.4c0-0.2,0.1-0.3,0.1-0.5s0-0.4,0.1-0.6c0-0.2,0-0.3,0-0.5
				s0-0.4,0-0.7s0-0.6,0-0.8c0-0.2,0-0.5,0-0.6c0-0.2,0-0.4,0-0.7c0-0.3,0-0.5,0-0.8c0-0.3,0-0.5,0-0.8c0-0.3,0-0.5,0-0.7
				c0-0.2,0-0.4,0-0.6c0-0.2,0-0.5,0-0.8c0-0.3,0-0.6,0-0.8c0-0.3,0-0.5,0-0.7c0-0.2,0-0.4,0-0.7c0-0.2,0-0.5,0-0.8
				c0-0.3,0-0.5,0-0.6c0-0.2,0-0.4,0-0.6c0-0.2,0-0.5,0-0.7c0-0.2,0-0.4,0-0.5L136,79c0-0.1,0.1-0.3,0.1-0.4s0.1-0.3,0.1-0.4
				c0-0.2,0.1-0.3,0.1-0.5c0-0.1,0.1-0.3,0.1-0.4c0-0.2,0.1-0.3,0.1-0.4c0-0.1,0.1-0.3,0.1-0.4c0-0.1,0.1-0.3,0.1-0.5
				c0-0.2,0.1-0.3,0.1-0.5c0-0.2,0.1-0.3,0.1-0.5c0-0.2,0.1-0.3,0.1-0.5c0-0.2,0.1-0.3,0.1-0.4c0-0.1,0-0.3,0-0.4c0-0.2,0-0.3,0-0.5
				c0-0.1-0.1-0.3-0.2-0.4c-0.1-0.1-0.2-0.3-0.2-0.4c-0.1-0.1-0.2-0.3-0.3-0.4c-0.1-0.1-0.2-0.3-0.3-0.4c-0.1-0.1-0.2-0.2-0.4-0.4
				c-0.1-0.1-0.3-0.3-0.4-0.4c-0.1-0.1-0.3-0.2-0.5-0.4c-0.2-0.1-0.3-0.2-0.5-0.4c-0.2-0.1-0.4-0.2-0.5-0.3
				c-0.2-0.1-0.3-0.2-0.5-0.3c-0.1-0.1-0.3-0.2-0.5-0.3c-0.2-0.1-0.4-0.2-0.5-0.2c-0.1-0.1-0.3-0.1-0.5-0.2
				c-0.2-0.1-0.4-0.2-0.6-0.3c-0.2-0.1-0.4-0.2-0.6-0.2c-0.2-0.1-0.4-0.2-0.7-0.2c-0.3-0.1-0.5-0.2-0.7-0.2s-0.4-0.1-0.6-0.2
				c-0.3-0.1-0.5-0.1-0.7-0.2c-0.2-0.1-0.4-0.1-0.6-0.1c-0.2,0-0.3-0.1-0.5-0.1c-0.2,0-0.3-0.1-0.6-0.1c-0.2,0-0.4-0.1-0.6-0.1
				c-0.1,0-0.3-0.1-0.6-0.1c-0.2,0-0.5-0.1-0.7-0.1c-0.2,0-0.4-0.1-0.6-0.1s-0.4-0.1-0.5-0.1c-0.1,0-0.3,0-0.4-0.1
				c-0.1,0-0.3,0-0.5-0.1c-0.2,0-0.4,0-0.7-0.1c-0.2,0-0.5,0-0.7,0c-0.2,0-0.4,0-0.5,0c-0.2,0-0.3,0-0.5,0c-0.2,0-0.4,0-0.5,0
				c-0.2,0-0.3,0-0.5,0c-0.2,0-0.4,0-0.6,0c-0.2,0-0.4,0-0.6,0s-0.4,0-0.6,0C117,66.1,116.9,66.1,116.8,66.1z"/>
		</g>
		<g>
			<path class="st29" d="M115.7,66.4c-5.1,0-9.2,0.6-12.5,1.6c-3.2,1.1-4.5,2.4-3.9,3.9c0.7,1.5,3,2.8,7,3.9
				c4.1,1.1,8.7,1.6,13.7,1.6c5.1,0,9.2-0.6,12.5-1.6c3.2-1.1,4.5-2.4,3.9-3.9c-0.7-1.5-3-2.8-7-3.9
				C125.4,66.9,120.8,66.4,115.7,66.4"/>
		</g>
		<g>
			<path class="st30" d="M105.8,56l-5.9,6.1c-0.5,0.5-0.8,0.9-0.8,1.1c-0.6,1.4-0.6,4.2-0.1,8.4c0,0,0.2-0.1,0.4-0.5
				c0.9-1.2,1.6-2.1,2.1-2.7c0.3-0.4,0.9-1.1,2-2.3l7.6-7.9L105.8,56"/>
		</g>
		<g>
			<path class="st30" d="M114.6,59.2c-1.1,1.2-2.1,2.3-3,3.2c-0.5,0.5-1.8,1.8-3.8,3.7c-0.6,0.5-1.3,1.3-2.1,2.1l-7,8.2
				c-0.2,0.4-0.2,1.2,0,2.3l1.4,4.6l0.3,0.9c0,0.1,0.1,0.1,0.1,0.1c0.1,0,0.3-0.1,0.5-0.2c0.5-0.4,0.9-0.8,1.3-1.2l5.6-5.9
				c8.2-9.1,12.9-14.3,14.2-15.9L114.6,59.2"/>
		</g>
		<g>
			<path class="st31" d="M136.5,97.9c-0.1,0-0.2,0-0.3,0c-0.1,0-0.3,0-0.5,0c-0.2,0-0.4,0-0.5,0c-0.1,0-0.2,0-0.3,0
				c-0.1,0-0.3,0-0.5,0c-0.2,0-0.4,0-0.6,0c-0.2,0-0.3,0-0.4,0c-0.1,0-0.2,0-0.4,0c-0.1,0-0.3,0-0.5,0s-0.3,0-0.5,0
				c-0.2,0-0.4,0-0.7,0.1c-0.3,0-0.5,0-0.7,0.1c-0.2,0-0.3,0-0.5,0.1c-0.2,0-0.4,0.1-0.7,0.1c-0.3,0-0.6,0.1-0.7,0.1
				c-0.2,0-0.4,0.1-0.6,0.1c-0.2,0-0.5,0.1-0.9,0.2c-0.4,0.1-0.8,0.1-1,0.2c-0.3,0.1-0.5,0.1-0.8,0.2c-0.3,0.1-0.5,0.1-0.8,0.2
				c-0.3,0.1-0.5,0.1-0.8,0.2c-0.3,0.1-0.6,0.1-0.9,0.2c-0.3,0.1-0.6,0.2-0.8,0.2s-0.5,0.1-0.8,0.2c-0.3,0.1-0.5,0.2-0.8,0.3
				c-0.3,0.1-0.5,0.2-0.7,0.3c-0.2,0.1-0.5,0.2-0.7,0.3c-0.2,0.1-0.4,0.2-0.6,0.3c-0.2,0.1-0.4,0.2-0.6,0.3
				c-0.2,0.1-0.4,0.2-0.6,0.3c-0.2,0.1-0.4,0.2-0.6,0.3c-0.2,0.1-0.4,0.2-0.7,0.4c-0.3,0.1-0.4,0.2-0.5,0.3
				c-0.1,0.1-0.2,0.1-0.3,0.2c-0.1,0.1-0.2,0.1-0.3,0.2s-0.2,0.1-0.3,0.2c-0.1,0.1-0.2,0.1-0.2,0.2c-0.1,0-0.2,0.1-0.2,0.2
				c-0.1,0.1-0.2,0.1-0.3,0.2s-0.2,0.2-0.3,0.2c-0.1,0.1-0.2,0.1-0.3,0.2c-0.1,0.1-0.2,0.1-0.2,0.2c-0.1,0.1-0.2,0.1-0.2,0.2
				c-0.1,0.1-0.1,0.1-0.1,0.2c0,0,0.1,0.1,0.2,0.1c0.1,0,0.1,0,0.2,0.1c0.3,0.1,0.5,0.1,0.8,0.2c0.3,0.1,0.6,0.1,0.9,0.1
				c0.3,0,0.6,0,0.9,0c0.3,0,0.6,0,0.8,0c0.3,0,0.5,0,0.8-0.1c0.3,0,0.5-0.1,0.8-0.1c0.3,0,0.6-0.1,0.9-0.1c0.3,0,0.5-0.1,0.8-0.1
				c0.2,0,0.5-0.1,0.8-0.2c0.3-0.1,0.6-0.1,0.9-0.2c0.3-0.1,0.6-0.1,0.9-0.2c0.3-0.1,0.6-0.2,0.8-0.2c0.2-0.1,0.5-0.2,0.8-0.2
				c0.3-0.1,0.6-0.2,1-0.3c0.4-0.1,0.7-0.2,0.9-0.3c0.2-0.1,0.5-0.1,0.7-0.2s0.6-0.2,1-0.3c0.5-0.2,0.8-0.3,1-0.3
				c0.2-0.1,0.4-0.1,0.5-0.2c0.1-0.1,0.3-0.1,0.5-0.2c0.2-0.1,0.4-0.2,0.8-0.3s0.7-0.2,0.8-0.3c0.2-0.1,0.3-0.1,0.5-0.2
				c0.2-0.1,0.5-0.2,0.9-0.3c0.4-0.1,0.7-0.3,0.8-0.3c0.1-0.1,0.3-0.1,0.4-0.1s0.2-0.1,0.4-0.2c0.2-0.1,0.4-0.2,0.5-0.2l0.1-0.1
				L136.5,97.9L136.5,97.9z"/>
		</g>
		<g>
			<path class="st31" d="M136.3,98c-0.2-0.1-0.5-0.2-0.8-0.2c-0.4-0.1-0.7-0.1-1.1-0.2c-0.3,0-0.7,0-1,0c-0.3,0-0.7,0-1,0
				c-0.3,0-0.7,0.1-1,0.1c-0.4,0-0.9,0.1-1.6,0.3c-0.7,0.1-1.2,0.2-1.5,0.3c-0.3,0.1-0.7,0.2-1,0.2c-0.3,0.1-0.6,0.2-1,0.2
				s-0.7,0.2-1.3,0.3c-0.6,0.2-1,0.3-1.2,0.3c-0.3,0.1-0.5,0.1-0.8,0.2c-0.2,0.1-0.5,0.1-0.7,0.2c-0.2,0.1-0.5,0.2-1,0.3
				c-0.4,0.1-0.7,0.2-0.9,0.3c-0.2,0.1-0.4,0.1-0.5,0.2c-0.2,0.1-0.5,0.2-0.8,0.3c-0.4,0.1-0.7,0.3-1,0.4c-0.3,0.1-0.5,0.2-0.8,0.3
				s-0.4,0.2-0.6,0.3c-0.2,0.1-0.4,0.2-0.7,0.3c-0.2,0.1-0.4,0.2-0.6,0.3c-0.2,0.1-0.3,0.1-0.4,0.2c-0.1,0.1-0.3,0.1-0.6,0.3
				c-0.3,0.1-0.5,0.2-0.6,0.2c-0.1,0-0.2,0.1-0.3,0.1c-0.1,0-0.2,0.1-0.4,0.2c-0.2,0.1-0.3,0.1-0.5,0.2c-0.2,0.1-0.3,0.1-0.3,0.2
				s-0.2,0.1-0.3,0.2c-0.1,0.1-0.2,0.1-0.3,0.2c-0.1,0.1-0.2,0.1-0.3,0.2c-0.1,0.1-0.2,0.1-0.2,0.2c-0.1,0.1-0.2,0.1-0.2,0.2
				c-0.1,0.1-0.1,0.2-0.1,0.3c0,0.1,0.2,0.2,0.4,0.3c0.1,0,0.1,0,0.2,0.1c0.1,0.1,0.3,0.1,0.4,0.2c0.2,0.1,0.5,0.1,0.7,0.2
				c0.3,0,0.5,0.1,0.8,0.1c0.3,0,0.6,0,1,0c0.4,0,0.7,0,1,0c0.3,0,0.6-0.1,0.8-0.1c0.2,0,0.4-0.1,0.6-0.1c0.2,0,0.3,0,0.4-0.1
				l5.8-0.3c0.1,0,0.4-0.1,0.7-0.2c0.3-0.1,0.7-0.2,1.2-0.3c0.5-0.1,0.9-0.3,1.3-0.4c0.4-0.1,0.8-0.3,1.2-0.4
				c0.4-0.1,0.7-0.3,1.1-0.4c0.3-0.1,0.7-0.3,1-0.4c0.3-0.1,0.6-0.3,0.9-0.4c0.3-0.1,0.6-0.3,0.8-0.4s0.5-0.2,0.8-0.4
				c0.3-0.1,0.5-0.3,0.8-0.4c0.2-0.1,0.5-0.2,0.7-0.3c0.2-0.1,0.4-0.2,0.6-0.3c0.2-0.1,0.3-0.2,0.5-0.2c0.2-0.1,0.3-0.2,0.4-0.2
				c0.1-0.1,0.3-0.1,0.4-0.2c0.1-0.1,0.2-0.2,0.4-0.3c0.2-0.1,0.3-0.2,0.4-0.3c0.1-0.1,0.2-0.1,0.3-0.2c0.1-0.1,0.2-0.1,0.3-0.2
				c0.1-0.1,0.2-0.2,0.2-0.3c0.1-0.1,0.1-0.2,0.2-0.2c0.1-0.1,0.1-0.1,0.1-0.2c0-0.1,0-0.1-0.2-0.2c-0.1-0.1-0.3-0.2-0.6-0.3
				C136.4,98,136.4,98,136.3,98z"/>
		</g>
		<g>
			<path class="st29" d="M137.3,97.1c-1.2-0.4-3.4-0.4-6.6,0.2c-3.3,0.6-6.6,1.5-10.1,2.8c-3.5,1.3-6,2.5-7.7,3.7
				c-1.6,1.2-1.8,2-0.7,2.5c1.2,0.4,3.4,0.4,6.6-0.2c3.2-0.6,6.6-1.5,10.1-2.7c3.5-1.3,6-2.5,7.7-3.7
				C138.2,98.4,138.4,97.6,137.3,97.1"/>
		</g>
		<g>
			<path class="st29" d="M136.2,98.1c-1-0.5-3.1-0.6-6-0.3c-3,0.3-6.2,1-9.4,1.9c-3.2,1-5.7,2-7.4,3.1c-1.6,1-1.9,1.8-1,2.4
				c1,0.5,3,0.6,6,0.3c3-0.3,6.2-1,9.4-1.9c3.2-1,5.7-2,7.4-3.1C136.8,99.5,137.1,98.7,136.2,98.1"/>
		</g>
		<g>
			<path class="st32" d="M139.7,60l-7.8,0.1c-0.2,0.4-0.5,0.8-0.7,1.2c-0.3,0.5-0.7,1.1-1.3,2c-0.6,0.9-1.1,1.6-1.4,2.1
				c-0.3,0.5-0.6,0.9-1,1.4c-0.3,0.5-0.6,0.9-1,1.4c-0.3,0.5-0.8,1.2-1.4,2.1c-0.6,0.9-1.1,1.7-1.4,2.1c-0.3,0.5-0.6,0.9-0.9,1.4
				c-0.3,0.4-0.6,0.9-0.8,1.2c-0.2,0.4-0.6,0.9-1.1,1.7c-0.5,0.7-0.9,1.3-1.1,1.7c-0.3,0.4-0.5,0.8-0.8,1.3
				c-0.3,0.4-0.6,0.9-0.8,1.3c-0.3,0.4-0.7,1-1.3,1.9c-0.6,0.9-1,1.5-1.2,1.8c-0.2,0.3-0.5,0.7-0.7,1c-0.2,0.3-0.5,0.8-1,1.4
				c-0.4,0.6-0.8,1.1-1,1.4c-0.2,0.3-0.4,0.6-0.6,0.9c-0.2,0.3-0.5,0.7-0.8,1.2c-0.3,0.5-0.6,0.9-0.8,1.2c-0.2,0.3-0.4,0.5-0.5,0.7
				c-0.1,0.2-0.3,0.5-0.5,0.8c-0.2,0.3-0.4,0.6-0.6,0.8s-0.3,0.5-0.4,0.7c-0.1,0.2-0.3,0.4-0.4,0.6c-0.1,0.2-0.2,0.3-0.3,0.5
				s-0.2,0.4-0.3,0.6s-0.2,0.5-0.1,0.8c0,0.3,0.1,0.6,0.2,0.9c0.1,0.3,0.2,0.6,0.3,0.9c0.1,0.3,0.3,0.7,0.5,1.1
				c0.2,0.4,0.4,0.8,0.5,1c0.1,0.2,0.2,0.4,0.3,0.5c0.1,0.1,0.2,0.3,0.3,0.5c0,0.1,0.1,0.1,0.2,0.1c0.2,0,0.6-0.1,1.1-0.3
				c0.7-0.3,1.3-0.6,1.8-0.9c0.4-0.3,0.8-0.5,1.2-0.8c0.3-0.2,0.7-0.5,1-0.7c0.3-0.2,0.7-0.6,1.2-1.1c0.5-0.5,1-0.9,1.3-1.2
				c0.3-0.3,0.6-0.7,1-1c0.3-0.4,0.8-0.9,1.3-1.5c0.5-0.7,1-1.2,1.3-1.7c0.3-0.4,0.7-0.9,0.9-1.2c0.3-0.4,0.6-0.7,0.9-1.1
				s0.7-0.9,1.3-1.7c0.6-0.7,1-1.3,1.3-1.7c0.3-0.4,0.6-0.7,0.8-1c0.2-0.3,0.5-0.7,0.9-1.2c0.4-0.5,0.7-0.9,1-1.3
				c0.3-0.4,0.6-0.8,0.9-1.2c0.3-0.4,0.6-0.8,0.8-1.2c0.3-0.4,0.5-0.8,0.8-1.2s0.5-0.9,0.8-1.3s0.5-0.8,0.7-1.1
				c0.2-0.3,0.4-0.7,0.7-1.1c0.3-0.4,0.5-0.7,0.6-1c0.2-0.2,0.3-0.5,0.5-0.8c0.2-0.3,0.4-0.7,0.7-1.2c0.3-0.5,0.6-0.9,0.8-1.3
				c0.2-0.4,0.4-0.7,0.6-0.9s0.3-0.5,0.5-0.8c0.2-0.3,0.3-0.6,0.5-0.8c0.1-0.3,0.3-0.6,0.5-0.9c0.2-0.3,0.3-0.6,0.4-0.8
				c0.1-0.2,0.2-0.4,0.4-0.7c0.1-0.2,0.3-0.5,0.4-0.7c0.1-0.2,0.2-0.4,0.4-0.6c0.1-0.2,0.2-0.4,0.4-0.6c0.1-0.2,0.2-0.4,0.3-0.6
				c0.1-0.2,0.2-0.4,0.3-0.6c0.1-0.2,0.2-0.5,0.3-0.6s0.2-0.4,0.2-0.5c0.1-0.2,0.1-0.3,0.1-0.5c0-0.2,0-0.4,0-0.6
				c0-0.2-0.1-0.4-0.1-0.6c0-0.2-0.1-0.4-0.2-0.6c-0.1-0.2-0.1-0.4-0.2-0.6L139.7,60z"/>
		</g>
		<g>
			<path class="st33" d="M139.8,58.7l-6.5,0.3l-18.4,23.5c-2.9,4-5.9,7.9-8.8,11.6l-0.9,1.3c-0.1,0.1-0.1,0.3-0.1,0.5
				c0.1,0.6,0.6,1.6,1.5,3.2l1.5,2.1c0.1,0.2,0.3,0.2,0.5,0.2c2.4-1,5-3.1,8-6.3c1.6-1.6,3.2-3.6,5-5.9l6.1-8.1l9.4-12.8
				c0.5-0.8,1.2-1.9,2-3.3c0.2-0.3,0.3-0.7,0.4-1.1C139.8,62.8,139.9,61.1,139.8,58.7"/>
		</g>
		<g>
			<path class="st34" d="M112.6,47.8c1.4,0,2.9,0.1,4.5,0.2c4.9,0.4,9.5,1.3,13.6,2.6c4.3,1.4,7.2,2.9,8.8,4.5l0,0
				c0.4,0.4,0.6,0.7,0.6,1.1h0l-0.3,0.9l0,0c-0.4,0.5-1.4,1-2.9,1.4c-2.1,0.6-4.7,0.9-7.7,0.9c-1.4,0-2.9-0.1-4.5-0.2
				c-4.9-0.4-9.5-1.3-13.6-2.6c-4.3-1.4-7.2-2.9-8.8-4.5c-1.4-1.4-0.6-2.5,2.4-3.4C107,48.1,109.6,47.8,112.6,47.8z M100.8,53.8
				L100.8,53.8c2.1,2.1,5.9,4,11.3,5.5c5.8,1.6,11.5,2.4,17.3,2.4c4.1,0,7.3-0.5,9.6-1.4h0c-0.5,1.8-1.2,4.9-2.2,9.4
				c-0.6,2.9-1.1,6.4-1.3,10.7c-0.1,2.7-0.1,5,0,6.9c0.2,2.7,0.5,5.6,0.9,8.7l0,0c-0.7-0.1-1.6-0.2-2.6-0.2l-0.1,0
				c-3.2,0-6.9,0.6-11.3,1.7c-4.3,1.1-7.6,2.4-10,3.9c-0.8,0.5-1.4,1-1.9,1.4l0,0c-2.1-2.6-3.6-4.8-4.6-6.8
				c-2.1-3.7-3.7-7.7-4.7-11.9c-1.4-5.6-2-11.8-1.9-18.7c0.1-3.3,0.4-6.2,0.8-8.5C100.2,56.5,100.4,55.5,100.8,53.8L100.8,53.8z
				 M134,98.3c0.9,0,1.6,0.1,2.2,0.2c0.3,0.1,0.5,0.1,0.6,0.2l-0.2,0.2c-1.1,1-3.2,2.1-6.3,3.2c-5.6,1.9-10.6,2.9-15.2,3h0
				c-0.9,0-1.6-0.1-2.2-0.2c-0.2,0-0.5-0.1-0.6-0.2l0.2-0.2c1.1-1,3.2-2.1,6.3-3.2C124.3,99.4,129.4,98.4,134,98.3L134,98.3z
				 M112.6,45.5c-5,0-8.7,0.7-11,2h0c-0.5,0.3-0.9,0.7-1.2,1.1c-0.3,0.4-0.7,0.9-1,1.6c-0.1,0.1-0.2,0.5-0.4,1.1h0
				c-0.4,1.4-0.7,3.1-1.1,5c-0.4,2.4-0.7,5.4-0.8,9.1c-0.1,7.1,0.6,13.6,2,19.5c1.3,5.3,3.6,10.6,7,15.7c0.6,1,1.7,2.4,3.1,4.1l0,0
				c0,0,0,0,0,0h0c0.3,0.3,0.6,0.7,0.9,1h0c0.1,0.1,0.3,0.2,0.4,0.4c0.2,0.2,0.5,0.4,0.7,0.5c0.2,0.1,0.5,0.2,0.7,0.3h0
				c0.9,0.3,2,0.4,3.4,0.4c3.2,0,6.9-0.6,11.3-1.7c4.3-1.1,7.6-2.4,10-3.9c0.4-0.2,0.7-0.5,1-0.7h0c0.1-0.1,0.2-0.2,0.4-0.4
				c0.3-0.3,0.4-0.5,0.5-0.6c0.2-0.3,0.4-0.6,0.5-1c0.1-0.3,0.1-0.6,0.1-1c0-0.2,0-0.3,0-0.5l-0.1-0.9l0,0l0,0c0-0.1,0-0.3-0.1-0.4
				c-0.4-2.7-0.6-4.7-0.8-6.1c-0.2-2.1-0.3-3.8-0.3-4.9c0-1.4,0-3,0.1-4.7c0.3-3.9,0.6-7.2,1.2-9.8c1.3-5.8,2-9,2.2-9.6l0.9-3.3h0
				c0.8-1.3,0.5-2.8-0.9-4.4l0,0c-0.1-0.1-0.1-0.2-0.2-0.2l0,0c-2.1-2.1-5.9-3.9-11.3-5.5C124.1,46.3,118.4,45.5,112.6,45.5z"/>
		</g>
		<g>
			<path class="st28" d="M120.1,42.6C120,42.6,120,42.6,120.1,42.6c-0.2,0-0.2,0-0.3,0c-0.1,0-0.1,0-0.2,0c-0.1,0-0.1,0-0.2,0
				c-0.1,0-0.1,0-0.2,0c-0.1,0-0.1,0-0.2,0c0,0-0.1,0-0.1,0c-0.1,0-0.1,0-0.2,0.1c-0.1,0-0.1,0-0.2,0.1c0,0-0.1,0-0.1,0.1
				c0,0-0.1,0-0.2,0.1c-0.1,0-0.1,0.1-0.2,0.1c-0.1,0-0.1,0.1-0.2,0.1c0,0-0.1,0.1-0.1,0.1c-0.1,0-0.1,0.1-0.2,0.1
				c-0.1,0-0.1,0.1-0.1,0.1c0,0-0.1,0.1-0.1,0.1c0,0-0.1,0.1-0.1,0.1c0,0-0.1,0.1-0.1,0.1c0,0-0.1,0.1-0.1,0.1c0,0-0.1,0.1-0.1,0.1
				c0,0-0.1,0.1-0.1,0.1c0,0-0.1,0.1-0.1,0.1c0,0-0.1,0.1-0.1,0.1c0,0-0.1,0.1-0.1,0.2c0,0.1-0.1,0.1-0.1,0.2c0,0.1-0.1,0.1-0.1,0.2
				c0,0.1-0.1,0.1-0.1,0.2c0,0.1-0.1,0.1-0.1,0.2c0,0.1-0.1,0.1-0.1,0.2c0,0.1,0,0.1-0.1,0.2c0,0,0,0.1,0,0.1c0,0,0,0.1-0.1,0.2
				c0,0.1-0.1,0.2-0.1,0.2c0,0,0,0.1,0,0.1s0,0.1,0,0.2c0,0.1,0,0.1,0,0.2c0,0.1,0,0.1,0,0.2c0,0.1,0,0.2,0,0.2c0,0.1,0,0.1,0,0.1
				c0,0,0,0.1,0,0.1c0,0,0,0.1,0,0.1c0,0.1,0,0.1,0,0.2c0,0.1,0,0.1,0,0.2c0,0.1,0,0.1,0,0.2c0,0,0,0.1,0,0.1c0,0,0,0.1,0,0.2
				c0,0.1,0,0.1,0,0.2c0,0.1,0,0.1,0,0.2s0,0.1,0,0.2c0,0.1,0,0.1,0,0.2c0,0.1,0,0.1,0,0.2c0,0.1,0,0.1,0,0.2c0,0.1,0,0.1,0,0.2
				c0,0.1,0,0.1,0,0.2c0,0.1,0,0.1,0.1,0.2c0,0.1,0,0.1,0,0.2c0,0.1,0,0.1,0.1,0.2c0,0.1,0,0.1,0.1,0.2s0,0.1,0.1,0.2
				c0,0,0,0.1,0.1,0.1c0,0,0,0.1,0.1,0.1c0,0.1,0,0.1,0.1,0.2c0,0.1,0.1,0.1,0.1,0.2c0,0,0,0.1,0.1,0.1c0,0.1,0.1,0.1,0.1,0.1
				c0,0,0,0.1,0.1,0.1c0,0,0.1,0.1,0.1,0.2c0,0.1,0.1,0.1,0.1,0.2c0,0.1,0.1,0.1,0.1,0.1c0,0,0.1,0.1,0.1,0.1c0,0.1,0.1,0.1,0.1,0.2
				c0,0,0.1,0.1,0.1,0.1c0,0,0.1,0.1,0.1,0.1c0,0,0.1,0.1,0.1,0.1c0,0,0.1,0.1,0.1,0.1c0,0,0.1,0.1,0.1,0.1c0,0,0.1,0.1,0.1,0.1
				c0,0,0.1,0.1,0.1,0.1c0,0,0.1,0.1,0.1,0.1c0,0,0.1,0.1,0.1,0.1c0,0,0.1,0.1,0.1,0.1c0,0,0.1,0.1,0.1,0.1c0,0,0.1,0.1,0.1,0.1
				c0,0,0.1,0.1,0.1,0.1c0,0,0.1,0.1,0.1,0.1c0,0,0.1,0.1,0.1,0.1c0,0,0.1,0.1,0.1,0.1c0,0,0.1,0.1,0.1,0.1c0,0,0.1,0.1,0.1,0.1
				c0,0,0.1,0.1,0.1,0.1c0,0,0.1,0.1,0.1,0.1c0,0,0.1,0.1,0.1,0.1c0,0,0.1,0.1,0.1,0.1c0,0,0.1,0.1,0.1,0.1c0,0,0.1,0.1,0.1,0.1
				c0,0,0.1,0.1,0.1,0.1c0,0,0.1,0.1,0.1,0.1c0,0,0.1,0.1,0.1,0.1c0,0,0.1,0.1,0.1,0.1c0,0,0.1,0.1,0.1,0.1c0,0,0.1,0.1,0.1,0.1
				c0,0,0.1,0.1,0.1,0.1c0,0,0.1,0.1,0.1,0.1c0,0,0.1,0.1,0.1,0.1l0.1,0l0.4,0.1c0-0.1,0-0.1,0-0.2c0,0,0-0.1,0-0.2
				c0-0.1,0-0.1,0-0.2c0-0.1,0-0.1,0-0.2c0,0,0-0.1,0-0.2c0-0.1,0-0.1,0-0.2c0-0.1,0-0.1,0-0.2c0-0.1,0-0.1,0-0.2c0-0.1,0-0.1,0-0.2
				c0-0.1,0-0.1,0-0.2c0,0,0-0.1,0-0.2c0-0.1,0-0.1,0.1-0.2c0-0.1,0-0.1,0.1-0.2c0,0,0-0.1,0-0.1c0,0,0-0.1,0.1-0.1
				c0,0,0-0.1,0.1-0.1c0-0.1,0-0.1,0.1-0.1c0,0,0-0.1,0.1-0.2c0-0.1,0.1-0.1,0.1-0.2c0-0.1,0.1-0.1,0.1-0.1c0,0,0-0.1,0.1-0.1
				c0,0,0-0.1,0.1-0.1c0,0,0-0.1,0.1-0.1c0,0,0-0.1,0.1-0.1s0-0.1,0.1-0.1c0,0,0-0.1,0.1-0.1c0-0.1,0.1-0.1,0.1-0.2
				c0-0.1,0.1-0.1,0.1-0.2c0-0.1,0.1-0.1,0.1-0.1c0,0,0-0.1,0.1-0.1c0,0,0-0.1,0.1-0.1c0,0,0-0.1,0.1-0.1c0,0,0-0.1,0.1-0.1
				c0-0.1,0.1-0.1,0.1-0.1c0,0,0-0.1,0.1-0.1c0,0,0.1-0.1,0.1-0.2c0-0.1,0.1-0.1,0.1-0.2c0-0.1,0.1-0.1,0.1-0.1c0,0,0.1-0.1,0.1-0.1
				c0,0,0.1-0.1,0.1-0.1c0,0,0.1-0.1,0.1-0.1c0-0.1,0.1-0.1,0.1-0.1c0,0,0-0.1,0.1-0.1c0,0,0-0.1,0.1-0.1c0-0.1,0-0.1,0.1-0.1
				c0,0,0-0.1,0.1-0.1c0,0,0-0.1,0.1-0.2c0-0.1,0-0.1,0.1-0.2c0,0,0-0.1,0-0.1c0,0,0-0.1,0-0.1c0,0,0-0.1,0-0.1c0-0.1,0-0.1,0-0.2
				c0-0.1,0-0.1,0-0.2c0-0.1,0-0.1,0-0.1c0,0,0-0.1,0-0.1c0,0,0-0.1,0-0.1c0-0.1,0-0.1,0-0.1c0,0,0-0.1,0-0.1c0,0,0-0.1,0-0.1
				c0,0,0-0.1,0-0.1c0,0,0-0.1,0-0.2c0-0.1,0-0.1,0-0.2c0-0.1,0-0.1,0-0.2c0-0.1,0-0.1,0-0.2c0-0.1,0-0.1,0-0.2c0-0.1,0-0.1,0-0.2
				c0-0.1,0-0.1,0-0.2c0-0.1,0-0.1,0-0.2c0-0.1,0-0.1,0-0.2c0-0.1,0-0.1,0-0.1c0,0,0-0.1,0-0.1c0,0,0-0.1-0.1-0.1c0,0,0-0.1-0.1-0.1
				c0,0,0-0.1-0.1-0.1c0,0-0.1-0.1-0.1-0.1c0,0-0.1-0.1-0.1-0.2c0-0.1-0.1-0.1-0.1-0.2c0-0.1-0.1-0.1-0.1-0.2c0-0.1-0.1-0.1-0.1-0.1
				c0,0-0.1-0.1-0.1-0.1c0,0-0.1-0.1-0.1-0.1c0,0-0.1-0.1-0.1-0.1c0,0-0.1-0.1-0.1-0.1c0,0-0.1-0.1-0.1-0.1c0,0-0.1-0.1-0.1-0.1
				c0,0-0.1-0.1-0.1-0.1c0,0-0.1-0.1-0.1-0.1c-0.1,0-0.1-0.1-0.2-0.1s-0.1-0.1-0.2-0.1c-0.1,0-0.1-0.1-0.2-0.1
				c-0.1,0-0.1-0.1-0.2-0.1c0,0-0.1-0.1-0.2-0.1c-0.1,0-0.1,0-0.2-0.1c-0.1,0-0.1,0-0.2-0.1c-0.1,0-0.1,0-0.2-0.1
				c-0.1,0-0.1,0-0.2-0.1c-0.1,0-0.1,0-0.2,0c-0.1,0-0.1,0-0.2,0c-0.1,0-0.1,0-0.2,0c-0.1,0-0.1,0-0.2,0c-0.1,0-0.1,0-0.2,0
				c-0.1,0-0.1,0-0.2,0C120.2,42.6,120.2,42.6,120.1,42.6C120.1,42.6,120.1,42.6,120.1,42.6z"/>
		</g>
		<g>
			<path class="st28" d="M140.1,39.6c-1-0.9-2.2-1.2-3.5-1c-1.6,0.3-2.9,1.1-3.9,2.2c-1.1,1.2-2,2.7-2.8,4.7c-1.2,3.4-1.9,5.9-2,7.4
				c1.9-1.4,3.9-2.4,6.2-2.9c0.9-0.2,1.8-0.2,2.8-0.1c0.4,0,0.9,0.1,1.5,0.2c1.7,0.4,2.7,0.7,3,0.7c0.6,0.1,1.1,0.1,1.7,0.1
				c1.4-0.1,2.6-0.5,3.4-1.4c1-1.1,1.1-2.4,0.3-3.9c-0.3-0.4-0.7-0.8-1.3-1.2c-0.1-0.1-0.9-0.4-2.3-0.9c-0.3-0.1-0.5-0.2-0.6-0.3
				c-0.1-0.1-0.2-0.2-0.3-0.4c-0.6-1.1-0.9-1.8-1.1-2C140.9,40.3,140.5,40,140.1,39.6"/>
		</g>
		<g>
			<path class="st28" d="M150.7,55.9c-1.5-1.9-3.5-2.8-6.2-2.8c-1.1,0-2.4,0.3-3.7,0.8c-0.7,0.3-1.2,0.5-1.5,0.7
				c-0.4,0.2-1.2,0.7-2.2,1.4l-0.5,0.2c1.6,0.3,2.8,0.8,3.7,1.7c0.3,0.3,0.6,0.7,0.9,1.2c0.1,0.1,0.5,0.9,1.1,2.3
				c0.1,0.2,0.3,0.5,0.4,0.7c0.4,0.6,0.8,1.1,1.2,1.4c1.1,0.8,2.2,1.2,3.5,1.1c2.1-0.1,3.6-1.2,4.5-3.2c0.3-0.7,0.4-1.6,0.1-2.8
				C151.8,57.6,151.3,56.7,150.7,55.9"/>
		</g>
		<g>
			<path class="st35" d="M115.1,82.8c-0.6,0.1-1.1,0.4-1.5,1c-0.4,0.6-0.5,1.3-0.4,2.1c0.1,0.8,0.4,1.5,0.9,2c0.5,0.5,1,0.7,1.6,0.7
				c0.6-0.1,1.1-0.4,1.5-1c0.4-0.6,0.5-1.3,0.4-2.1c-0.1-0.8-0.4-1.4-0.8-2C116.3,83,115.8,82.7,115.1,82.8"/>
		</g>
		<g>
			<path class="st28" d="M116,83.7c-0.2,0-0.3,0.1-0.4,0.4c-0.1,0.2-0.1,0.5-0.1,0.8c0,0.3,0.1,0.5,0.3,0.7c0.2,0.2,0.3,0.3,0.5,0.3
				c0.2,0,0.3-0.1,0.4-0.4c0.1-0.2,0.1-0.5,0.1-0.8c0-0.3-0.1-0.5-0.3-0.7C116.4,83.8,116.2,83.7,116,83.7"/>
		</g>
		<g>
			<path class="st35" d="M126.5,81.2c-0.6,0.1-1.1,0.4-1.5,1c-0.4,0.6-0.5,1.3-0.4,2.1c0.1,0.8,0.4,1.5,0.9,2c0.5,0.5,1,0.7,1.6,0.7
				c0.6-0.1,1.1-0.4,1.5-1c0.4-0.6,0.5-1.3,0.4-2.1c-0.1-0.8-0.4-1.4-0.8-2C127.7,81.4,127.2,81.1,126.5,81.2"/>
		</g>
		<g>
			<path class="st28" d="M127.4,82.1c-0.2,0-0.3,0.1-0.4,0.4c-0.1,0.2-0.1,0.5-0.1,0.8c0,0.3,0.1,0.5,0.3,0.7
				c0.2,0.2,0.3,0.3,0.5,0.3c0.2,0,0.3-0.1,0.4-0.4c0.1-0.2,0.1-0.5,0.1-0.8c0-0.3-0.1-0.5-0.3-0.7
				C127.8,82.1,127.6,82.1,127.4,82.1"/>
		</g>
		<g>
			<path class="st35" d="M123.6,88c-0.4,0-0.8,0.1-1.2,0.1c-0.3,0-0.7,0.1-1.4,0.2c-0.3,0-0.6,0.1-0.8,0.1l0,0
				c-0.1,0-0.1,0.1-0.2,0.2c0,0.1-0.1,0.2-0.1,0.4c0,0.1,0,0.2,0,0.2c0,0.1,0,0.1,0.1,0.2l0,0c0,0,0,0,0,0c0.2,0.5,0.3,0.9,0.5,1.1
				c0.4,0.5,0.9,0.7,1.4,0.7c0.1,0,0.1,0,0.2,0c0.7-0.1,1.1-0.5,1.4-1.1c0.2-0.3,0.3-0.7,0.3-1.1c0-0.2,0-0.4,0-0.6l0,0
				c0-0.1,0-0.2-0.1-0.2C123.9,88.1,123.9,88,123.6,88C123.7,88,123.7,88,123.6,88L123.6,88z"/>
		</g>
		<g>
			<path class="st36" d="M131.1,86.3c-0.4-0.2-0.8-0.3-1.3-0.2c-0.5,0.1-0.9,0.3-1.1,0.6c-0.3,0.3-0.4,0.7-0.3,1.1
				c0.1,0.4,0.3,0.7,0.7,0.9c0.4,0.2,0.8,0.3,1.3,0.2c0.5-0.1,0.9-0.3,1.2-0.6c0.3-0.3,0.4-0.7,0.3-1.1
				C131.7,86.8,131.5,86.6,131.1,86.3"/>
		</g>
		<g>
			<path class="st36" d="M112.6,89.5c0.3-0.3,0.7-0.5,1.1-0.6c0.5-0.1,0.9,0,1.3,0.1c0.4,0.2,0.6,0.5,0.7,0.9c0.1,0.4,0,0.7-0.3,1.1
				c-0.3,0.3-0.7,0.5-1.1,0.7c-0.5,0.1-0.9,0-1.3-0.1c-0.4-0.2-0.6-0.5-0.7-0.9C112.2,90.2,112.3,89.9,112.6,89.5"/>
		</g>
		<g>
			<path class="st37" d="M121.9,89.2c-0.3,0.1-0.5,0.2-0.7,0.4c-0.1,0.2-0.2,0.4-0.1,0.6c0.1,0.2,0.2,0.4,0.5,0.5
				c0.3,0.1,0.5,0.1,0.8,0c0.3-0.1,0.5-0.2,0.7-0.4c0.2-0.2,0.2-0.4,0.1-0.6c-0.1-0.2-0.2-0.4-0.5-0.5
				C122.4,89.2,122.2,89.2,121.9,89.2"/>
		</g>
	</g>
</g>
</svg>
